<svg width="46" height="46" viewBox="0 0 46 46" fill="none" xmlns="http://www.w3.org/2000/svg">
<path d="M14.25 45.5C13.0125 45.5 11.9535 45.0597 11.073 44.1792C10.1925 43.2988 9.7515 42.239 9.75 41V36.5H5.25C4.0125 36.5 2.9535 36.0597 2.073 35.1792C1.1925 34.2988 0.7515 33.239 0.75 32V27.5H5.25V32H9.75V14C9.75 12.7625 10.191 11.7035 11.073 10.823C11.955 9.9425 13.014 9.5015 14.25 9.5H32.25V5H27.75V0.5H32.25C33.4875 0.5 34.5472 0.941 35.4292 1.823C36.3112 2.705 36.7515 3.764 36.75 5V9.5H41.25C42.4875 9.5 43.5472 9.941 44.4292 10.823C45.3112 11.705 45.7515 12.764 45.75 14V41C45.75 42.2375 45.3097 43.2972 44.4292 44.1792C43.5488 45.0612 42.489 45.5015 41.25 45.5H14.25ZM0.75 23V14H5.25V23H0.75ZM0.75 9.5V5C0.75 3.7625 1.191 2.7035 2.073 1.823C2.955 0.9425 4.014 0.5015 5.25 0.5H9.75V5H5.25V9.5H0.75ZM14.25 5V0.5H23.25V5H14.25Z" fill="white"/>
</svg>
