<svg width="30" height="29" viewBox="0 0 30 29" fill="none" xmlns="http://www.w3.org/2000/svg">
<path d="M15 25.1333L11.9917 28.1417C11.7014 28.4319 11.3319 28.5771 10.8833 28.5771C10.4347 28.5771 10.0653 28.4319 9.775 28.1417C9.48472 27.8514 9.33958 27.4819 9.33958 27.0333C9.33958 26.5847 9.48472 26.2153 9.775 25.925L12.7833 22.9167L9.775 19.9083C9.48472 19.6181 9.33958 19.2486 9.33958 18.8C9.33958 18.3514 9.48472 17.9819 9.775 17.6917C10.0653 17.4014 10.4347 17.2563 10.8833 17.2563C11.3319 17.2563 11.7014 17.4014 11.9917 17.6917L15 20.7L18.0083 17.6917C18.2986 17.4014 18.6681 17.2563 19.1167 17.2563C19.5653 17.2563 19.9347 17.4014 20.225 17.6917C20.5153 17.9819 20.6604 18.3514 20.6604 18.8C20.6604 19.2486 20.5153 19.6181 20.225 19.9083L17.2167 22.9167L20.225 25.925C20.5153 26.2153 20.6604 26.5847 20.6604 27.0333C20.6604 27.4819 20.5153 27.8514 20.225 28.1417C19.9347 28.4319 19.5653 28.5771 19.1167 28.5771C18.6681 28.5771 18.2986 28.4319 18.0083 28.1417L15 25.1333ZM8.825 8.66667L9.3 10.25H20.7L21.175 8.66667H8.825ZM9.3 13.4167C8.61389 13.4167 7.99375 13.2124 7.43958 12.8039C6.88542 12.3954 6.50278 11.8608 6.29167 11.2L5.5 8.66667H3.91667C3.04583 8.66667 2.30061 8.35686 1.681 7.73725C1.06139 7.11764 0.751056 6.37189 0.75 5.5V3.91667C0.75 3.04583 1.06033 2.30061 1.681 1.681C2.30167 1.06139 3.04689 0.751056 3.91667 0.75H26.0833C26.9542 0.75 27.6999 1.06033 28.3206 1.681C28.9413 2.30167 29.2511 3.04689 29.25 3.91667V5.5C29.25 6.37083 28.9402 7.11658 28.3206 7.73725C27.701 8.35792 26.9552 8.66772 26.0833 8.66667H24.5L23.4708 11.3583C23.2333 11.9653 22.8507 12.4603 22.3229 12.8435C21.7951 13.2267 21.2014 13.4177 20.5417 13.4167H9.3Z" fill="white"/>
</svg>
