<svg width="26" height="32" viewBox="0 0 26 32" fill="none" xmlns="http://www.w3.org/2000/svg">
<path d="M1.93583 5.33283C0.915833 5.78616 0.25 6.80616 0.25 7.92533V14.5837C0.25 22.4462 5.69 29.7987 13 31.5837C20.31 29.7987 25.75 22.4462 25.75 14.5837V7.92533C25.75 6.80616 25.0842 5.78616 24.0642 5.33283L14.1475 0.926992C13.4108 0.601159 12.575 0.601159 11.8525 0.926992L1.93583 5.33283ZM13 8.91699C13.7792 8.91699 14.4167 9.55449 14.4167 10.3337C14.4167 11.1128 13.7792 11.7503 13 11.7503C12.2208 11.7503 11.5833 11.1128 11.5833 10.3337C11.5833 9.55449 12.2208 8.91699 13 8.91699ZM13 14.5837C13.7792 14.5837 14.4167 15.2212 14.4167 16.0003V21.667C14.4167 22.4462 13.7792 23.0837 13 23.0837C12.2208 23.0837 11.5833 22.4462 11.5833 21.667V16.0003C11.5833 15.2212 12.2208 14.5837 13 14.5837Z" fill="white"/>
</svg>
