<svg width="30" height="26" viewBox="0 0 30 26" fill="none" xmlns="http://www.w3.org/2000/svg">
<path d="M8.07696 0.307617C7.46492 0.307617 6.87795 0.550748 6.44517 0.983525C6.0124 1.4163 5.76926 2.00327 5.76926 2.61531V23.3845C5.76926 23.9966 6.0124 24.5835 6.44517 25.0163C6.87795 25.4491 7.46492 25.6922 8.07696 25.6922H21.9231C22.5351 25.6922 23.1221 25.4491 23.5549 25.0163C23.9877 24.5835 24.2308 23.9966 24.2308 23.3845V2.61531C24.2308 2.00327 23.9877 1.4163 23.5549 0.983525C23.1221 0.550748 22.5351 0.307617 21.9231 0.307617H8.07696ZM11.5385 2.54377C12.8446 2.54377 13.9189 3.61685 13.9189 4.923C13.9158 5.55338 13.6641 6.15708 13.2183 6.60284C12.7726 7.04859 12.1689 7.30035 11.5385 7.30339C10.9078 7.30126 10.3036 7.04978 9.85766 6.60384C9.41171 6.15789 9.16024 5.55366 9.15811 4.923C9.15811 3.61685 10.2323 2.54377 11.5385 2.54377ZM2.81196 2.61531C2.74547 2.61469 2.67953 2.62735 2.618 2.65254C2.55647 2.67774 2.50058 2.71496 2.45362 2.76203C2.40666 2.80909 2.36957 2.86506 2.34452 2.92665C2.31946 2.98824 2.30696 3.05421 2.30773 3.12069V3.76916H0.504264C0.437778 3.76854 0.371837 3.7812 0.310306 3.80639C0.248775 3.83158 0.192891 3.8688 0.14593 3.91587C0.0989694 3.96294 0.0618756 4.01891 0.036823 4.0805C0.0117704 4.14209 -0.000737086 4.20806 3.35637e-05 4.27454V5.57262C3.35637e-05 5.85646 0.222726 6.07685 0.505418 6.07685H2.30773V6.72646C2.30773 7.00916 2.52926 7.23069 2.81311 7.23069H4.11003C4.17662 7.23147 4.24268 7.21892 4.30435 7.1938C4.36601 7.16868 4.42203 7.13148 4.46912 7.08439C4.5162 7.03731 4.5534 6.98129 4.57852 6.91962C4.60365 6.85796 4.61619 6.79189 4.61542 6.72531V3.12069C4.61619 3.05411 4.60365 2.98805 4.57852 2.92638C4.5534 2.86471 4.5162 2.80869 4.46912 2.76161C4.42203 2.71453 4.36601 2.67733 4.30435 2.6522C4.24268 2.62708 4.17662 2.61454 4.11003 2.61531H2.81196ZM25.8889 2.61531C25.8224 2.61469 25.7565 2.62735 25.6949 2.65254C25.6334 2.67774 25.5775 2.71496 25.5305 2.76203C25.4836 2.80909 25.4465 2.86506 25.4214 2.92665C25.3964 2.98824 25.3839 3.05421 25.3846 3.12069V6.72646C25.3846 7.00916 25.6062 7.23069 25.89 7.23069H27.1881C27.2546 7.23131 27.3205 7.21865 27.3821 7.19346C27.4436 7.16827 27.4995 7.13105 27.5464 7.08398C27.5934 7.03691 27.6305 6.98094 27.6556 6.91935C27.6806 6.85776 27.6931 6.79179 27.6923 6.72531V6.07685H29.4958C29.5623 6.07747 29.6282 6.06481 29.6898 6.03962C29.7513 6.01442 29.8072 5.9772 29.8541 5.93013C29.9011 5.88306 29.9382 5.82709 29.9632 5.76551C29.9883 5.70392 30.0008 5.63795 30 5.57146V4.27454C30.0008 4.20796 29.9883 4.14189 29.9631 4.08023C29.938 4.01856 29.9008 3.96254 29.8537 3.91546C29.8066 3.86837 29.7506 3.83117 29.689 3.80605C29.6273 3.78093 29.5612 3.76838 29.4946 3.76916H27.6923V3.11954C27.693 3.05305 27.6803 2.98711 27.6551 2.92558C27.6299 2.86405 27.5927 2.80817 27.5456 2.76121C27.4986 2.71425 27.4426 2.67715 27.381 2.6521C27.3194 2.62705 27.2534 2.61454 27.187 2.61531H25.8889ZM2.81196 10.6922C2.74547 10.6916 2.67953 10.7043 2.618 10.7295C2.55647 10.7547 2.50058 10.7919 2.45362 10.8389C2.40666 10.886 2.36957 10.942 2.34452 11.0036C2.31946 11.0652 2.30696 11.1311 2.30773 11.1976V11.8461H0.504264C0.437778 11.8455 0.371837 11.8581 0.310306 11.8833C0.248775 11.9085 0.192891 11.9457 0.14593 11.9928C0.0989694 12.0399 0.0618756 12.0958 0.036823 12.1574C0.0117704 12.219 -0.000737086 12.285 3.35637e-05 12.3515V13.6484C3.35637e-05 13.9334 0.222726 14.1538 0.505418 14.1538H2.30773V14.8034C2.30773 15.0849 2.52926 15.3076 2.81311 15.3076H4.11003C4.17662 15.3084 4.24268 15.2958 4.30435 15.2707C4.36601 15.2456 4.42203 15.2084 4.46912 15.1613C4.5162 15.1142 4.5534 15.0582 4.57852 14.9965C4.60365 14.9349 4.61619 14.8688 4.61542 14.8022V11.1976C4.61619 11.131 4.60365 11.065 4.57852 11.0033C4.5534 10.9416 4.5162 10.8856 4.46912 10.8385C4.42203 10.7914 4.36601 10.7543 4.30435 10.7291C4.24268 10.704 4.17662 10.6915 4.11003 10.6922H2.81196ZM25.8889 10.6922C25.8224 10.6916 25.7565 10.7043 25.6949 10.7295C25.6334 10.7547 25.5775 10.7919 25.5305 10.8389C25.4836 10.886 25.4465 10.942 25.4214 11.0036C25.3964 11.0652 25.3839 11.1311 25.3846 11.1976V14.8022C25.3846 15.0849 25.6062 15.3076 25.89 15.3076H27.1881C27.2546 15.3082 27.3205 15.2956 27.3821 15.2704C27.4436 15.2452 27.4995 15.208 27.5464 15.1609C27.5934 15.1138 27.6305 15.0579 27.6556 14.9963C27.6806 14.9347 27.6931 14.8687 27.6923 14.8022V14.1538H29.4958C29.5623 14.1544 29.6282 14.1417 29.6898 14.1165C29.7513 14.0913 29.8072 14.0541 29.8541 14.0071C29.9011 13.96 29.9382 13.904 29.9632 13.8424C29.9883 13.7808 30.0008 13.7149 30 13.6484V12.3515C30.0008 12.2849 29.9883 12.2188 29.9631 12.1572C29.938 12.0955 29.9008 12.0395 29.8537 11.9924C29.8066 11.9453 29.7506 11.9081 29.689 11.883C29.6273 11.8579 29.5612 11.8453 29.4946 11.8461H27.6923V11.1965C27.693 11.13 27.6803 11.064 27.6551 11.0025C27.6299 10.941 27.5927 10.8851 27.5456 10.8381C27.4986 10.7912 27.4426 10.7541 27.381 10.729C27.3194 10.704 27.2534 10.6915 27.187 10.6922H25.8889ZM2.81196 18.7692C2.74547 18.7685 2.67953 18.7812 2.618 18.8064C2.55647 18.8316 2.50058 18.8688 2.45362 18.9159C2.40666 18.9629 2.36957 19.0189 2.34452 19.0805C2.31946 19.1421 2.30696 19.2081 2.30773 19.2745V19.923H0.504264C0.437778 19.9224 0.371837 19.935 0.310306 19.9602C0.248775 19.9854 0.192891 20.0226 0.14593 20.0697C0.0989694 20.1168 0.0618756 20.1728 0.036823 20.2343C0.0117704 20.2959 -0.000737086 20.3619 3.35637e-05 20.4284V21.7265C3.35637e-05 22.0092 0.222726 22.2307 0.505418 22.2307H2.30773V22.8803C2.30773 23.163 2.52926 23.3845 2.81311 23.3845H4.11003C4.17662 23.3853 4.24268 23.3728 4.30435 23.3476C4.36601 23.3225 4.42203 23.2853 4.46912 23.2382C4.5162 23.1912 4.5534 23.1351 4.57852 23.0735C4.60365 23.0118 4.61619 22.9457 4.61542 22.8792V19.2734C4.61604 19.2069 4.60338 19.141 4.57819 19.0794C4.55299 19.0179 4.51577 18.962 4.4687 18.9151C4.42163 18.8681 4.36566 18.831 4.30408 18.8059C4.24249 18.7809 4.17652 18.7684 4.11003 18.7692H2.81196ZM25.8889 18.7692C25.8224 18.7685 25.7565 18.7812 25.6949 18.8064C25.6334 18.8316 25.5775 18.8688 25.5305 18.9159C25.4836 18.9629 25.4465 19.0189 25.4214 19.0805C25.3964 19.1421 25.3839 19.2081 25.3846 19.2745V22.8803C25.3846 23.163 25.6062 23.3845 25.89 23.3845H27.1881C27.2546 23.3852 27.3205 23.3725 27.3821 23.3473C27.4436 23.3221 27.4995 23.2849 27.5464 23.2378C27.5934 23.1908 27.6305 23.1348 27.6556 23.0732C27.6806 23.0116 27.6931 22.9456 27.6923 22.8792V22.2307H29.4958C29.5623 22.2313 29.6282 22.2187 29.6898 22.1935C29.7513 22.1683 29.8072 22.131 29.8541 22.084C29.9011 22.0369 29.9382 21.9809 29.9632 21.9194C29.9883 21.8578 30.0008 21.7918 30 21.7253V20.4272C30.0007 20.3607 29.988 20.2948 29.9628 20.2333C29.9376 20.1717 29.9004 20.1159 29.8533 20.0689C29.8062 20.0219 29.7503 19.9848 29.6887 19.9598C29.6271 19.9347 29.5611 19.9222 29.4946 19.923H27.6923V19.2734C27.693 19.2069 27.6803 19.141 27.6551 19.0794C27.6299 19.0179 27.5927 18.962 27.5456 18.9151C27.4986 18.8681 27.4426 18.831 27.381 18.8059C27.3194 18.7809 27.2534 18.7684 27.187 18.7692H25.8889Z" fill="white"/>
</svg>
