<svg width="55" height="54" viewBox="0 0 55 54" fill="none" xmlns="http://www.w3.org/2000/svg">
<path d="M20.5092 0.1875H34.9907C37.9938 0.1875 40.3753 0.1875 42.292 0.34425C44.2555 0.50375 45.9137 0.83925 47.4317 1.60925C49.8893 2.86282 51.8868 4.86228 53.138 7.321C53.9108 8.8335 54.2463 10.4945 54.4058 12.458C54.5625 14.3748 54.5625 16.7562 54.5625 19.7592V34.2407C54.5625 37.2438 54.5625 39.6253 54.4058 41.542C54.2463 43.5055 53.9108 45.1637 53.1408 46.6817C51.8879 49.1388 49.8894 51.1363 47.4317 52.388C45.9137 53.1608 44.2555 53.4963 42.292 53.6558C40.3753 53.8125 37.9938 53.8125 34.9907 53.8125H20.5092C17.5062 53.8125 15.1248 53.8125 13.208 53.6558C11.2445 53.4963 9.58625 53.1608 8.071 52.3908C5.61288 51.1384 3.61439 49.1399 2.362 46.6817C1.58925 45.1637 1.25375 43.5055 1.09425 41.542C0.9375 39.6253 0.9375 37.2438 0.9375 34.2407V19.7592C0.9375 16.7562 0.9375 14.3748 1.09425 12.458C1.25375 10.4945 1.58925 8.83625 2.35925 7.321C3.61236 4.86246 5.61186 2.86392 8.071 1.612C9.5835 0.83925 11.2445 0.50375 13.208 0.34425C15.1248 0.1875 17.5062 0.1875 20.5092 0.1875ZM11.9375 13.25V38C11.9375 39.1385 12.8615 40.0625 14 40.0625H22.25C22.797 40.0625 23.3216 39.8452 23.7084 39.4584C24.0952 39.0716 24.3125 38.547 24.3125 38V13.25C24.3125 12.703 24.0952 12.1784 23.7084 11.7916C23.3216 11.4048 22.797 11.1875 22.25 11.1875H14C13.453 11.1875 12.9284 11.4048 12.5416 11.7916C12.1548 12.1784 11.9375 12.703 11.9375 13.25ZM31.1875 13.25V27C31.1875 28.1385 32.1115 29.0625 33.25 29.0625H41.5C42.047 29.0625 42.5716 28.8452 42.9584 28.4584C43.3452 28.0716 43.5625 27.547 43.5625 27V13.25C43.5625 12.703 43.3452 12.1784 42.9584 11.7916C42.5716 11.4048 42.047 11.1875 41.5 11.1875H33.25C32.703 11.1875 32.1784 11.4048 31.7916 11.7916C31.4048 12.1784 31.1875 12.703 31.1875 13.25Z" fill="white"/>
</svg>
