<svg width="125" height="124" viewBox="0 0 125 124" fill="none" xmlns="http://www.w3.org/2000/svg">
<rect x="1.5" y="1" width="122" height="122" rx="61" fill="#003067"/>
<rect x="1.5" y="1" width="122" height="122" rx="61" stroke="white" stroke-width="2"/>
<path d="M47.9165 82.8337C49.5741 82.8337 51.1638 82.1752 52.3359 81.0031C53.508 79.831 54.1665 78.2413 54.1665 76.5837V41.167H41.6665V76.5837C41.6665 78.2413 42.325 79.831 43.4971 81.0031C44.6692 82.1752 46.2589 82.8337 47.9165 82.8337Z" fill="white"/>
<path d="M47.9165 82.8337C49.5741 82.8337 51.1638 82.1752 52.3359 81.0031M47.9165 82.8337C46.2589 82.8337 44.6692 82.1752 43.4971 81.0031M47.9165 82.8337H83.3332V70.3337H63.005M47.9165 82.8337C47.0957 82.8337 46.2828 82.6727 45.5245 82.3586C44.7661 82.0444 44.0775 81.5836 43.4971 81.0031M47.9165 82.8337C48.7374 82.8337 49.5502 82.6727 50.3085 82.3586C51.0669 82.0444 51.7555 81.5836 52.3359 81.0031M52.3359 81.0031C53.508 79.831 54.1665 78.2413 54.1665 76.5837V61.4951M52.3359 81.0031L63.005 70.3337M54.1665 61.4951V41.167H41.6665V76.5837C41.6665 78.2413 42.325 79.831 43.4971 81.0031M54.1665 61.4951L73.9738 41.6878L74.4634 41.167L83.3175 50.0212L63.005 70.3337" stroke="white" stroke-width="2" stroke-linecap="round" stroke-linejoin="round"/>
<path d="M52.3364 81.0035L83.3177 50.0212L74.4635 41.167L54.1666 61.4951" stroke="white" stroke-width="2" stroke-linecap="round" stroke-linejoin="round"/>
<path d="M63.0049 70.334H83.333V82.834H50.5205" stroke="white" stroke-width="2" stroke-linecap="round" stroke-linejoin="round"/>
<path d="M63.0049 70.334H83.333V82.834H50.5205" stroke="white" stroke-width="2" stroke-linecap="round" stroke-linejoin="round"/>
<path d="M47.9165 82.8337C49.5741 82.8337 51.1638 82.1752 52.3359 81.0031C53.508 79.831 54.1665 78.2413 54.1665 76.5837V41.167H41.6665V76.5837C41.6665 78.2413 42.325 79.831 43.4971 81.0031C44.6692 82.1752 46.2589 82.8337 47.9165 82.8337Z" fill="white" stroke="white" stroke-width="2" stroke-linecap="round" stroke-linejoin="round"/>
</svg>
