<svg width="58" height="58" viewBox="0 0 58 58" fill="none" xmlns="http://www.w3.org/2000/svg">
<path d="M57.8967 27.2161C56.9814 12.0926 44.4715 0.113781 29.1505 0.0195312H28.8115C23.394 0.0557812 18.3335 1.55834 14.0088 4.18103C10.0112 6.5966 6.65361 9.93868 4.21952 13.925C1.454 18.4671 -0.00597007 23.6836 1.83483e-05 29.0014C1.83483e-05 29.605 0.0290183 30.2103 0.0562058 30.8048C0.358893 35.6478 1.83246 40.1592 4.21952 44.0669C6.63833 48.0481 9.97509 51.3923 13.9508 53.82C18.4278 56.504 23.5428 57.9379 28.7626 57.9724H29.1976C44.5295 57.8691 56.9796 45.9175 57.9348 30.8139C57.962 30.2285 58.0091 29.6158 58.0091 29.0395C58.0091 28.4522 58.0091 27.8414 57.9601 27.2632L57.904 27.207L57.8967 27.2161ZM29.0091 37.7993V47.0503C29.2356 52.7053 27.6316 53.6478 25.6958 53.733C25.6106 53.733 25.5345 53.742 25.4493 53.742C14.4438 52.1851 5.73839 43.4615 4.21952 32.427C4.06262 31.2882 3.98329 30.1401 3.98208 28.9905C3.98208 27.8305 4.06908 26.6868 4.21952 25.5631C5.72933 14.5485 14.4148 5.82316 25.424 4.24809L25.6976 4.27709C27.6334 4.37859 29.2375 5.31384 29.0109 10.9489V20.1999C28.9819 24.0062 31.1714 27.6312 33.4932 28.9996C31.1714 30.3572 28.9819 33.5308 29.0109 37.7884L29.0091 37.7993Z" fill="white"/>
</svg>
