<svg width="42" height="45" viewBox="0 0 42 45" fill="none" xmlns="http://www.w3.org/2000/svg">
<path fill-rule="evenodd" clip-rule="evenodd" d="M19.4165 0.353516L38.1665 11.1788V27.5511L41.4722 29.7549L40.3166 31.4883L33.3722 41.905L31.9625 44.0194L30.1656 42.2226L23.1369 35.1937L26.0832 32.2475L31.3145 37.4785L36.8497 29.1771L38.0054 27.4437L38.1665 27.5511V24.0827L33.9998 24.0826V15.7495L21.4998 22.9663V42.452L19.4165 43.6548L0.666504 32.8295V11.1788L19.4165 0.353516ZM4.83311 15.7494V30.4238L17.3331 37.6406V22.9663L4.83311 15.7494ZM19.4165 5.16475L7.1248 12.2614L19.4165 19.358L31.7082 12.2613L19.4165 5.16475Z" fill="white"/>
</svg>
