<svg width="50" height="40" viewBox="0 0 50 40" fill="none" xmlns="http://www.w3.org/2000/svg">
<path d="M20.1668 32.0827H41.9168V17.5827H20.1668V32.0827ZM5.66683 39.3327C4.33766 39.3327 3.20022 38.8598 2.2545 37.9141C1.30877 36.9684 0.835107 35.8301 0.833496 34.4994V5.49935C0.833496 4.17018 1.30716 3.03274 2.2545 2.08702C3.20183 1.14129 4.33927 0.667627 5.66683 0.666016H44.3335C45.6627 0.666016 46.8009 1.13968 47.7482 2.08702C48.6956 3.03435 49.1684 4.17179 49.1668 5.49935V34.4994C49.1668 35.8285 48.694 36.9668 47.7482 37.9141C46.8025 38.8614 45.6643 39.3343 44.3335 39.3327H5.66683Z" fill="white"/>
</svg>
