<svg width="51" height="52" viewBox="0 0 51 52" fill="none" xmlns="http://www.w3.org/2000/svg">
<path fill-rule="evenodd" clip-rule="evenodd" d="M37.3535 1.03951C37.5476 0.727822 37.8298 0.480662 38.1643 0.329269C38.4988 0.177875 38.8707 0.129042 39.233 0.188941L48.7824 1.78237C49.2679 1.86336 49.7015 2.1338 49.9877 2.53427C50.274 2.93474 50.3895 3.43247 50.309 3.91808L48.7193 13.4712C48.6586 13.8334 48.4919 14.1694 48.2404 14.4368C47.9888 14.7043 47.6636 14.8912 47.3058 14.9738C46.9481 15.0565 46.5738 15.0313 46.2304 14.9014C45.887 14.7714 45.5898 14.5426 45.3764 14.2438L42.7987 10.6409L29.5238 19.1244C28.9577 19.4866 28.2798 19.632 27.6149 19.5337C26.9501 19.4354 26.3432 19.1001 25.9061 18.5895L18.5035 9.93523L4.6604 17.0481C4.00334 17.386 3.23897 17.449 2.53545 17.2233C1.83192 16.9976 1.24685 16.5017 0.908969 15.8447C0.571083 15.1876 0.50805 14.4232 0.733737 13.7197C0.959424 13.0162 1.45534 12.4311 2.1124 12.0932L17.9167 3.97008C18.4747 3.68344 19.113 3.5935 19.7285 3.71484C20.3439 3.83617 20.9004 4.16168 21.3078 4.63866L28.5655 13.1258L39.5598 6.09837L37.4167 3.10094C37.2036 2.80204 37.0839 2.4467 37.0727 2.0798C37.0614 1.7129 37.1592 1.3509 37.3535 1.03951ZM13.0398 19.2767L2.26097 25.4424C1.83515 25.6856 1.48109 26.0369 1.23456 26.4609C0.988033 26.8848 0.857781 27.3663 0.856969 27.8567V49.2138C0.856969 50.7515 2.10497 51.9995 3.64268 51.9995H13.0398V19.2767ZM17.6827 51.9995H31.3067V26.6978L25.1818 29.7584L19.0607 19.0464C18.7509 18.5022 18.2667 18.0782 17.6864 17.8429L17.6827 51.9995ZM46.357 51.9995H35.9495V24.3764L45.1127 19.7929C45.5374 19.5809 46.0092 19.4809 46.4834 19.5025C46.9576 19.524 47.4185 19.6664 47.8222 19.9161C48.2259 20.1658 48.5591 20.5145 48.7902 20.9291C49.0214 21.3437 49.1427 21.8105 49.1427 22.2852V49.2138C49.1427 49.9526 48.8492 50.6612 48.3268 51.1836C47.8043 51.706 47.0958 51.9995 46.357 51.9995Z" fill="white"/>
</svg>
