<svg width="34" height="34" viewBox="0 0 34 34" fill="none" xmlns="http://www.w3.org/2000/svg">
<path d="M26.9138 24.7917C24.5765 24.7917 22.6642 22.8792 22.6642 20.5417C22.6642 18.2042 24.5765 16.2917 26.9138 16.2917C29.251 16.2917 31.1633 18.2042 31.1633 20.5417C31.1633 22.8792 29.251 24.7917 26.9138 24.7917ZM32.5798 34H21.2477C20.8086 34 20.3978 33.8017 20.1287 33.4475C19.8595 33.1075 19.7604 32.6542 19.8737 32.2292C20.6669 29.155 23.6274 26.9167 26.9138 26.9167C30.2001 26.9167 33.1606 29.155 33.9538 32.2292C34.0672 32.6542 33.968 33.1075 33.6989 33.4475C33.4297 33.7875 33.0189 34 32.5798 34ZM16.9982 8.5C12.3095 8.5 8.49908 12.3108 8.49908 17C8.49908 21.6892 12.3095 25.5 16.9982 25.5C18.4572 25.5 19.8454 25.1317 21.0494 24.48C20.2845 23.3467 19.8312 22.0008 19.8312 20.5417C19.8312 17.3542 21.9701 14.6767 24.874 13.7983C23.6133 10.6958 20.5678 8.5 16.9982 8.5ZM16.9982 19.125C15.8225 19.125 14.8734 18.1758 14.8734 17C14.8734 15.8242 15.8225 14.875 16.9982 14.875C18.1739 14.875 19.1229 15.8242 19.1229 17C19.1229 18.1758 18.1739 19.125 16.9982 19.125ZM17.1257 31.5208C17.4373 30.2883 18.0181 29.1692 18.7546 28.1775C18.1739 28.2625 17.5931 28.3333 16.984 28.3333C10.6239 28.3333 5.46774 23.0633 5.65189 16.66C5.82187 10.9933 10.3547 6.19083 15.9924 5.70917C21.4602 5.24167 26.1913 8.68417 27.7495 13.5433C31.2483 13.9683 33.9822 16.9292 33.9822 20.5417V7.08333C33.9822 3.17333 30.8092 0 26.8996 0H7.08257C3.17299 0 0 3.17333 0 7.08333V26.9167C0 30.8267 3.17299 34 7.08257 34H17.2673C16.984 33.2067 16.9132 32.3425 17.1257 31.5208Z" fill="white"/>
</svg>
