<svg width="44" height="44" viewBox="0 0 44 44" fill="none" xmlns="http://www.w3.org/2000/svg">
<path d="M3.25 0.25H17.5C18.8062 0.25 19.875 1.3375 19.875 2.66667V17.1667C19.875 18.4958 18.8062 19.5833 17.5 19.5833H3.25C1.94375 19.5833 0.875 18.4958 0.875 17.1667V2.66667C0.875 1.3375 1.94375 0.25 3.25 0.25ZM27 0.25H41.25C42.5563 0.25 43.625 1.3375 43.625 2.66667V17.1667C43.625 18.4958 42.5563 19.5833 41.25 19.5833H27C25.6938 19.5833 24.625 18.4958 24.625 17.1667V2.66667C24.625 1.3375 25.6938 0.25 27 0.25ZM3.25 24.4167H17.5C18.8062 24.4167 19.875 25.5042 19.875 26.8333V41.3333C19.875 42.6625 18.8062 43.75 17.5 43.75H3.25C1.94375 43.75 0.875 42.6625 0.875 41.3333V26.8333C0.875 25.5042 1.94375 24.4167 3.25 24.4167ZM34.125 24.4167C32.8188 24.4167 31.75 25.5042 31.75 26.8333V31.6667H27C25.6938 31.6667 24.625 32.7542 24.625 34.0833C24.625 35.4125 25.6938 36.5 27 36.5H31.75V41.3333C31.75 42.6625 32.8188 43.75 34.125 43.75C35.4313 43.75 36.5 42.6625 36.5 41.3333V36.5H41.25C42.5563 36.5 43.625 35.4125 43.625 34.0833C43.625 32.7542 42.5563 31.6667 41.25 31.6667H36.5V26.8333C36.5 25.5042 35.4313 24.4167 34.125 24.4167Z" fill="white"/>
</svg>
