<svg width="35" height="18" viewBox="0 0 35 18" fill="none" xmlns="http://www.w3.org/2000/svg">
<path d="M4.5 3C3.675 3 3 2.325 3 1.5C3 0.675 3.675 0 4.5 0H8.31C7.785 0.9 7.5 1.935 7.5 3H4.5ZM7.5 10.5H3C2.175 10.5 1.5 9.825 1.5 9C1.5 8.175 2.175 7.5 3 7.5H7.5V10.5ZM1.5 18C0.672 18 0 17.325 0 16.5C0 15.675 0.672 15 1.5 15H7.5C7.5 16.065 7.785 17.1 8.31 18H1.5ZM31.5 0H13.5C11.835 0 10.5 1.335 10.5 3V15C10.5 16.665 11.835 18 13.5 18H31.5C33.165 18 34.5 16.665 34.5 15V3C34.5 1.335 33.165 0 31.5 0ZM31.5 9H13.5V4.5H31.5V9Z" fill="white"/>
</svg>
