<svg width="49" height="48" viewBox="0 0 49 48" fill="none" xmlns="http://www.w3.org/2000/svg">
<path d="M9.41667 0H31.4167V48H9.41667C7.11812 48 4.91372 47.0869 3.28841 45.4616C1.66309 43.8363 0.75 41.6319 0.75 39.3333V8.66667C0.75 6.36812 1.66309 4.16372 3.28841 2.53841C4.91372 0.913092 7.11812 0 9.41667 0ZM40.0833 48H35.4167V34.6667H48.75V39.3333C48.75 41.6319 47.8369 43.8363 46.2116 45.4616C44.5863 47.0869 42.3819 48 40.0833 48ZM48.75 30.6667H35.4167V17.3333H48.75V30.6667ZM35.4167 13.3333V0H40.0833C42.3819 0 44.5863 0.913092 46.2116 2.53841C47.8369 4.16372 48.75 6.36812 48.75 8.66667V13.3333H35.4167ZM8.75 28.6667C8.75 29.7707 9.646 30.6667 10.75 30.6667H22.75C23.2804 30.6667 23.7891 30.456 24.1642 30.0809C24.5393 29.7058 24.75 29.1971 24.75 28.6667C24.75 28.1362 24.5393 27.6275 24.1642 27.2525C23.7891 26.8774 23.2804 26.6667 22.75 26.6667H10.75C10.2196 26.6667 9.71086 26.8774 9.33579 27.2525C8.96071 27.6275 8.75 28.1362 8.75 28.6667ZM12.0833 9.33333C10.2433 9.33333 8.75 10.8267 8.75 12.6667V19.3333C8.75 21.1733 10.2433 22.6667 12.0833 22.6667H21.4167C23.2567 22.6667 24.75 21.1733 24.75 19.3333V12.6667C24.75 10.8267 23.2567 9.33333 21.4167 9.33333H12.0833ZM12.75 18.6667V13.3333H20.75V18.6667H12.75ZM8.75 36.6667C8.75 37.7707 9.646 38.6667 10.75 38.6667H22.75C23.2804 38.6667 23.7891 38.456 24.1642 38.0809C24.5393 37.7058 24.75 37.1971 24.75 36.6667C24.75 36.1362 24.5393 35.6275 24.1642 35.2525C23.7891 34.8774 23.2804 34.6667 22.75 34.6667H10.75C10.2196 34.6667 9.71086 34.8774 9.33579 35.2525C8.96071 35.6275 8.75 36.1362 8.75 36.6667Z" fill="white"/>
</svg>
