<svg width="42" height="42" viewBox="0 0 42 42" fill="none" xmlns="http://www.w3.org/2000/svg">
<path d="M23.604 30.3753C25.3997 30.3753 27.1219 29.662 28.3917 28.3922C29.6615 27.1224 30.3748 25.4002 30.3748 23.6045V6.93783C30.3748 5.14209 29.6615 3.4199 28.3917 2.15012C27.1219 0.880346 25.3997 0.166992 23.604 0.166992H6.93734C5.1416 0.166992 3.41941 0.880346 2.14964 2.15012C0.879857 3.4199 0.166504 5.14209 0.166504 6.93783V23.6045C0.166504 25.4002 0.879857 27.1224 2.14964 28.3922C3.41941 29.662 5.1416 30.3753 6.93734 30.3753H23.604ZM11.6248 32.4587H14.7498V35.0628C14.7498 37.0753 16.3832 38.7087 18.3957 38.7087H35.0623C36.0293 38.7087 36.9566 38.3245 37.6403 37.6408C38.3241 36.9571 38.7082 36.0298 38.7082 35.0628V18.3962C38.7082 17.4292 38.3241 16.5019 37.6403 15.8182C36.9566 15.1344 36.0293 14.7503 35.0623 14.7503H32.4582V11.6253H35.0623C35.9515 11.6253 36.832 11.8005 37.6534 12.1407C38.4749 12.481 39.2213 12.9797 39.85 13.6085C40.4788 14.2372 40.9775 14.9836 41.3178 15.8051C41.658 16.6266 41.8332 17.507 41.8332 18.3962V35.0628C41.8332 35.952 41.658 36.8324 41.3178 37.6539C40.9775 38.4754 40.4788 39.2218 39.85 39.8505C39.2213 40.4793 38.4749 40.978 37.6534 41.3183C36.832 41.6585 35.9515 41.8337 35.0623 41.8337H18.3957C17.5065 41.8337 16.6261 41.6585 15.8046 41.3183C14.9831 40.978 14.2367 40.4793 13.608 39.8505C12.9792 39.2218 12.4805 38.4754 12.1402 37.6539C11.8 36.8324 11.6248 35.952 11.6248 35.0628V32.4587Z" fill="white"/>
</svg>
