<svg width="51" height="52" viewBox="0 0 51 52" fill="none" xmlns="http://www.w3.org/2000/svg">
<path fill-rule="evenodd" clip-rule="evenodd" d="M6.375 5.96429C6.13346 5.96429 5.90182 6.06024 5.73103 6.23103C5.56024 6.40182 5.46429 6.63346 5.46429 6.875V12.3393C5.46429 13.0639 5.17644 13.7588 4.66406 14.2712C4.15168 14.7836 3.45675 15.0714 2.73214 15.0714C2.00753 15.0714 1.3126 14.7836 0.800226 14.2712C0.28785 13.7588 0 13.0639 0 12.3393L0 6.875C0 5.18424 0.67165 3.56274 1.86719 2.36719C3.06274 1.17165 4.68424 0.5 6.375 0.5L11.8393 0.5C12.5639 0.5 13.2588 0.78785 13.7712 1.30023C14.2836 1.8126 14.5714 2.50753 14.5714 3.23214C14.5714 3.95675 14.2836 4.65168 13.7712 5.16406C13.2588 5.67644 12.5639 5.96429 11.8393 5.96429H6.375ZM48.2679 36.9286C48.9925 36.9286 49.6874 37.2164 50.1998 37.7288C50.7121 38.2412 51 38.9361 51 39.6607V45.125C51 46.8158 50.3284 48.4373 49.1328 49.6328C47.9373 50.8284 46.3158 51.5 44.625 51.5H39.1607C38.4361 51.5 37.7412 51.2121 37.2288 50.6998C36.7164 50.1874 36.4286 49.4925 36.4286 48.7679C36.4286 48.0432 36.7164 47.3483 37.2288 46.8359C37.7412 46.3236 38.4361 46.0357 39.1607 46.0357H44.625C44.8665 46.0357 45.0982 45.9398 45.269 45.769C45.4398 45.5982 45.5357 45.3665 45.5357 45.125V39.6607C45.5357 38.9361 45.8236 38.2412 46.3359 37.7288C46.8483 37.2164 47.5432 36.9286 48.2679 36.9286ZM5.46429 39.6607C5.46429 38.9361 5.17644 38.2412 4.66406 37.7288C4.15168 37.2164 3.45675 36.9286 2.73214 36.9286C2.00753 36.9286 1.3126 37.2164 0.800226 37.7288C0.28785 38.2412 0 38.9361 0 39.6607L0 45.125C0 46.8158 0.67165 48.4373 1.86719 49.6328C3.06274 50.8284 4.68424 51.5 6.375 51.5H11.8393C12.5639 51.5 13.2588 51.2121 13.7712 50.6998C14.2836 50.1874 14.5714 49.4925 14.5714 48.7679C14.5714 48.0432 14.2836 47.3483 13.7712 46.8359C13.2588 46.3236 12.5639 46.0357 11.8393 46.0357H6.375C6.13346 46.0357 5.90182 45.9398 5.73103 45.769C5.56024 45.5982 5.46429 45.3665 5.46429 45.125V39.6607ZM36.4286 3.23214C36.4286 2.50753 36.7164 1.8126 37.2288 1.30023C37.7412 0.78785 38.4361 0.5 39.1607 0.5L44.625 0.5C46.3158 0.5 47.9373 1.17165 49.1328 2.36719C50.3284 3.56274 51 5.18424 51 6.875V12.3393C51 13.0639 50.7121 13.7588 50.1998 14.2712C49.6874 14.7836 48.9925 15.0714 48.2679 15.0714C47.5432 15.0714 46.8483 14.7836 46.3359 14.2712C45.8236 13.7588 45.5357 13.0639 45.5357 12.3393V6.875C45.5357 6.63346 45.4398 6.40182 45.269 6.23103C45.0982 6.06024 44.8665 5.96429 44.625 5.96429H39.1607C38.4361 5.96429 37.7412 5.67644 37.2288 5.16406C36.7164 4.65168 36.4286 3.95675 36.4286 3.23214ZM22.7679 15.0714C20.594 15.0714 18.5092 15.935 16.9721 17.4721C15.435 19.0092 14.5714 21.094 14.5714 23.2679C14.5714 25.4417 15.435 27.5265 16.9721 29.0636C18.5092 30.6007 20.594 31.4643 22.7679 31.4643C24.9417 31.4643 27.0265 30.6007 28.5636 29.0636C30.1007 27.5265 30.9643 25.4417 30.9643 23.2679C30.9643 21.094 30.1007 19.0092 28.5636 17.4721C27.0265 15.935 24.9417 15.0714 22.7679 15.0714ZM9.10714 23.2679C9.1078 21.1379 9.60648 19.0377 10.5634 17.1348C11.5202 15.232 12.9088 13.5792 14.6182 12.3086C16.3276 11.0379 18.3104 10.1846 20.4083 9.81667C22.5061 9.44877 24.661 9.57652 26.7007 10.1897C28.7405 10.8029 30.6086 11.8846 32.1558 13.3483C33.7031 14.812 34.8866 16.6172 35.612 18.6198C36.3373 20.6224 36.5844 22.7669 36.3334 24.882C36.0824 26.997 35.3403 29.0241 34.1664 30.8013L40.1807 36.8193C40.4491 37.0694 40.6644 37.371 40.8138 37.7062C40.9631 38.0413 41.0434 38.4031 41.0499 38.77C41.0563 39.1368 40.9889 39.5012 40.8514 39.8414C40.714 40.1816 40.5095 40.4906 40.2501 40.7501C39.9906 41.0095 39.6816 41.214 39.3414 41.3514C39.0012 41.4889 38.6368 41.5563 38.27 41.5499C37.9031 41.5434 37.5413 41.4631 37.2062 41.3138C36.871 41.1644 36.5694 40.9491 36.3193 40.6807L30.3013 34.67C28.242 36.0314 25.8522 36.8093 23.3861 36.921C20.92 37.0327 18.4697 36.4741 16.2958 35.3045C14.1218 34.135 12.3053 32.3981 11.0396 30.2787C9.77379 28.1593 9.10598 25.7365 9.10714 23.2679Z" fill="white"/>
</svg>
