<svg width="41" height="41" viewBox="0 0 41 41" fill="none" xmlns="http://www.w3.org/2000/svg">
<path d="M11.75 23C14.7337 23 17.5952 21.8147 19.705 19.705C21.8147 17.5952 23 14.7337 23 11.75C23 8.76631 21.8147 5.90483 19.705 3.79505C17.5952 1.68526 14.7337 0.5 11.75 0.5C8.76631 0.5 5.90483 1.68526 3.79505 3.79505C1.68526 5.90483 0.5 8.76631 0.5 11.75C0.5 14.7337 1.68526 17.5952 3.79505 19.705C5.90483 21.8147 8.76631 23 11.75 23ZM9.51 7.01L7.2675 9.25H11.125C12.9484 9.25 14.697 9.97433 15.9864 11.2636C17.2757 12.553 18 14.3016 18 16.125V16.75C18 17.0815 17.8683 17.3995 17.6339 17.6339C17.3995 17.8683 17.0815 18 16.75 18C16.4185 18 16.1005 17.8683 15.8661 17.6339C15.6317 17.3995 15.5 17.0815 15.5 16.75V16.125C15.5 14.9647 15.0391 13.8519 14.2186 13.0314C13.3981 12.2109 12.2853 11.75 11.125 11.75H7.2675L9.51 13.99C9.74472 14.2247 9.87658 14.5431 9.87658 14.875C9.87658 15.2069 9.74472 15.5253 9.51 15.76C9.27528 15.9947 8.95694 16.1266 8.625 16.1266C8.29306 16.1266 7.97472 15.9947 7.74 15.76L3.36 11.375C3.12785 11.1401 2.99807 10.823 2.99901 10.4927C2.99994 10.1625 3.13152 9.84604 3.365 9.6125L7.74 5.2375C7.97472 5.00278 8.29306 4.87092 8.625 4.87092C8.95694 4.87092 9.27528 5.00278 9.51 5.2375C9.74472 5.47222 9.87658 5.79056 9.87658 6.1225C9.87658 6.45444 9.74472 6.77278 9.51 7.0075M25.5 11.75C25.5004 14.1036 24.8967 16.4178 23.7467 18.4713C22.5967 20.5247 20.9388 22.2486 18.9318 23.4779C16.9248 24.7072 14.6358 25.4008 12.284 25.4922C9.93226 25.5836 7.59637 25.0698 5.5 24V33C5.5 34.625 6.015 36.125 6.8925 37.355L20.3675 24.085C21.069 23.3941 22.0141 23.0069 22.9988 23.0069C23.9834 23.0069 24.9285 23.3941 25.63 24.085L39.105 37.355C40.015 36.0855 40.503 34.562 40.5 33V13C40.5 11.0109 39.7098 9.10322 38.3033 7.6967C36.8968 6.29018 34.9891 5.5 33 5.5H24C24.96 7.375 25.5 9.5 25.5 11.75ZM29.25 18C29.5815 18 29.8995 17.8683 30.1339 17.6339C30.3683 17.3995 30.5 17.0815 30.5 16.75C30.5 16.4185 30.3683 16.1005 30.1339 15.8661C29.8995 15.6317 29.5815 15.5 29.25 15.5C28.9185 15.5 28.6005 15.6317 28.3661 15.8661C28.1317 16.1005 28 16.4185 28 16.75C28 17.0815 28.1317 17.3995 28.3661 17.6339C28.6005 17.8683 28.9185 18 29.25 18ZM29.25 20.5C28.2554 20.5 27.3016 20.1049 26.5983 19.4017C25.8951 18.6984 25.5 17.7446 25.5 16.75C25.5 15.7554 25.8951 14.8016 26.5983 14.0983C27.3016 13.3951 28.2554 13 29.25 13C30.2446 13 31.1984 13.3951 31.9017 14.0983C32.6049 14.8016 33 15.7554 33 16.75C33 17.7446 32.6049 18.6984 31.9017 19.4017C31.1984 20.1049 30.2446 20.5 29.25 20.5ZM8.6625 39.12C9.8875 39.99 11.385 40.5 13 40.5H33C34.615 40.5 36.1125 39.99 37.3375 39.12L23.8775 25.87C23.6436 25.6395 23.3284 25.5102 23 25.5102C22.6716 25.5102 22.3564 25.6395 22.1225 25.87L8.6625 39.12Z" fill="white"/>
</svg>
