<svg width="26" height="26" viewBox="0 0 26 26" fill="none" xmlns="http://www.w3.org/2000/svg">
<path d="M5.5625 0.25C4.15354 0.25 2.80228 0.809708 1.806 1.806C0.809708 2.80228 0.25 4.15354 0.25 5.5625V20.4375C0.25 21.8465 0.809708 23.1977 1.806 24.194C2.80228 25.1903 4.15354 25.75 5.5625 25.75H20.4375C21.8465 25.75 23.1977 25.1903 24.194 24.194C25.1903 23.1977 25.75 21.8465 25.75 20.4375V5.5625C25.75 4.15354 25.1903 2.80228 24.194 1.806C23.1977 0.809708 21.8465 0.25 20.4375 0.25H5.5625ZM6.625 6.625H19.375C19.6568 6.625 19.927 6.73694 20.1263 6.9362C20.3256 7.13546 20.4375 7.40571 20.4375 7.6875C20.4375 7.96929 20.3256 8.23954 20.1263 8.4388C19.927 8.63806 19.6568 8.75 19.375 8.75H6.625C6.34321 8.75 6.07296 8.63806 5.8737 8.4388C5.67444 8.23954 5.5625 7.96929 5.5625 7.6875C5.5625 7.40571 5.67444 7.13546 5.8737 6.9362C6.07296 6.73694 6.34321 6.625 6.625 6.625Z" fill="white"/>
</svg>
