<svg width="52" height="52" viewBox="0 0 52 52" fill="none" xmlns="http://www.w3.org/2000/svg">
<path d="M19.625 32.375V19.625H32.375V32.375H19.625ZM0.500037 6.07813V31.3125C0.500037 31.5943 0.611979 31.8645 0.811236 32.0638C1.01049 32.2631 1.28074 32.375 1.56254 32.375H15.375V18.3792L2.31426 5.31844C2.16518 5.16918 1.97505 5.06768 1.76809 5.02686C1.56112 4.98605 1.34669 5.00776 1.15211 5.08924C0.957534 5.17072 0.791613 5.30827 0.675485 5.48438C0.559358 5.66049 0.498281 5.86718 0.500037 6.07813ZM50.4375 19.625H36.625V33.6208L49.6858 46.6816C49.8349 46.8308 50.025 46.9323 50.232 46.9731C50.4389 47.014 50.6534 46.9922 50.848 46.9108C51.0425 46.8293 51.2085 46.6917 51.3246 46.5156C51.4407 46.3395 51.5018 46.1328 51.5 45.9219V20.6875C51.5 20.4057 51.3881 20.1355 51.1888 19.9362C50.9896 19.7369 50.7193 19.625 50.4375 19.625ZM32.375 1.5625C32.375 1.28071 32.2631 1.01046 32.0638 0.8112C31.8646 0.611942 31.5943 0.5 31.3125 0.5H6.07816C5.8679 0.499835 5.66231 0.56206 5.48743 0.678797C5.31255 0.795535 5.17624 0.961536 5.09575 1.15579C5.01526 1.35003 4.99422 1.5638 5.03529 1.77001C5.07635 1.97623 5.17768 2.16562 5.32644 2.31422L18.3793 15.375H32.375V1.5625ZM48.4427 13.5608L38.4393 3.55734C38.2907 3.40858 38.1013 3.30725 37.895 3.26619C37.6888 3.22512 37.4751 3.24616 37.2808 3.32665C37.0866 3.40714 36.9206 3.54345 36.8038 3.71833C36.6871 3.89321 36.6249 4.0988 36.625 4.30906V15.375H47.691C47.9012 15.3752 48.1068 15.3129 48.2817 15.1962C48.4566 15.0795 48.5929 14.9135 48.6734 14.7192C48.7539 14.525 48.7749 14.3112 48.7338 14.105C48.6928 13.8988 48.5915 13.7094 48.4427 13.5608ZM33.6208 36.625H19.625V50.4375C19.625 50.7193 19.737 50.9895 19.9362 51.1888C20.1355 51.3881 20.4057 51.5 20.6875 51.5H45.9219C46.1322 51.5002 46.3378 51.4379 46.5126 51.3212C46.6875 51.2045 46.8238 51.0385 46.9043 50.8442C46.9848 50.65 47.0059 50.4362 46.9648 50.23C46.9237 50.0238 46.8224 49.8344 46.6736 49.6858L33.6208 36.625ZM3.55738 38.4392L13.5608 48.4427C13.7094 48.5914 13.8988 48.6927 14.105 48.7338C14.3112 48.7749 14.525 48.7538 14.7193 48.6733C14.9135 48.5929 15.0795 48.4566 15.1962 48.2817C15.313 48.1068 15.3752 47.9012 15.375 47.6909V36.625H4.3091C4.09883 36.6248 3.89325 36.6871 3.71837 36.8038C3.54349 36.9205 3.40717 37.0865 3.32669 37.2808C3.2462 37.475 3.22516 37.6888 3.26622 37.895C3.30729 38.1012 3.40862 38.2906 3.55738 38.4392Z" fill="white"/>
</svg>
