<svg width="51" height="50" viewBox="0 0 51 50" fill="none" xmlns="http://www.w3.org/2000/svg">
<path d="M25.75 0C27.99 0 30.16 0.295 32.225 0.8475L26.91 6.16C26.5068 6.56483 26.1511 7.01441 25.85 7.5H25.75C22.2888 7.5 18.9054 8.52636 16.0275 10.4493C13.1497 12.3722 10.9066 15.1053 9.58211 18.303C8.25757 21.5007 7.91102 25.0194 8.58626 28.4141C9.2615 31.8087 10.9282 34.9269 13.3756 37.3744C15.823 39.8218 18.9413 41.4885 22.3359 42.1637C25.7306 42.839 29.2493 42.4924 32.447 41.1679C35.6447 39.8434 38.3778 37.6003 40.3007 34.7225C42.2236 31.8446 43.25 28.4612 43.25 25V24.9C43.7333 24.6 44.1792 24.2458 44.5875 23.8375L49.9025 18.525C50.455 20.59 50.75 22.76 50.75 25C50.75 38.8075 39.5575 50 25.75 50C11.9425 50 0.75 38.8075 0.75 25C0.75 11.1925 11.9425 0 25.75 0ZM24.715 12.5425C24.715 14.67 24.61 16.8275 24.725 18.9525L23.375 20.3025C22.9106 20.7669 22.5422 21.3182 22.2909 21.9249C22.0396 22.5317 21.9102 23.182 21.9102 23.8387C21.9102 24.4955 22.0396 25.1458 22.2909 25.7526C22.5422 26.3593 22.9106 26.9106 23.375 27.375C23.8394 27.8394 24.3907 28.2078 24.9974 28.4591C25.6042 28.7104 26.2545 28.8398 26.9113 28.8398C27.568 28.8398 28.2183 28.7104 28.8251 28.4591C29.4318 28.2078 29.9831 27.8394 30.4475 27.375L31.7975 26.025C33.9225 26.14 36.0775 26.035 38.2075 26.035C38.01 28.4109 37.1372 30.6807 35.6921 32.5768C34.2469 34.4729 32.2897 35.9162 30.0512 36.7364C27.8127 37.5566 25.3863 37.7196 23.0582 37.2062C20.7301 36.6927 18.5974 35.5242 16.9116 33.8384C15.2259 32.1526 14.0573 30.0199 13.5438 27.6918C13.0304 25.3637 13.1934 22.9373 14.0136 20.6988C14.8338 18.4603 16.2771 16.5031 18.1732 15.0579C20.0693 13.6128 22.3391 12.74 24.715 12.5425ZM42.01 0.3175C42.4663 0.506698 42.8564 0.826843 43.1309 1.23752C43.4054 1.6482 43.5521 2.13101 43.5525 2.625V7.2H48.125C48.6194 7.20011 49.1026 7.34679 49.5136 7.6215C49.9247 7.89621 50.245 8.28661 50.4342 8.74336C50.6234 9.20011 50.6729 9.7027 50.5765 10.1876C50.48 10.6725 50.242 11.1179 49.8925 11.4675L41.05 20.3C40.5813 20.7689 39.9455 21.0324 39.2825 21.0325H33.25L28.68 25.605C28.2109 26.0741 27.5747 26.3376 26.9113 26.3376C26.2478 26.3376 25.6116 26.0741 25.1425 25.605C24.6734 25.1359 24.4099 24.4997 24.4099 23.8363C24.4099 23.1728 24.6734 22.5366 25.1425 22.0675L29.715 17.5V11.465C29.7147 11.1363 29.7793 10.8108 29.905 10.5071C30.0307 10.2033 30.215 9.92739 30.4475 9.695L39.285 0.8575C39.6346 0.507668 40.0801 0.269396 40.5652 0.172828C41.0503 0.076261 41.5531 0.125738 42.01 0.315" fill="white"/>
</svg>
