<svg width="59" height="54" viewBox="0 0 59 54" fill="none" xmlns="http://www.w3.org/2000/svg">
<path d="M29.9727 1.79452L55.3656 13.4059L29.9722 25.0175L8.96175 15.4229L6.79976 14.4357L6.80058 14.4134L5.88669 13.9969L4.58474 13.4036L29.9727 1.79452ZM6.76364 15.417L6.77556 15.0932L6.83966 16.8423L8.11668 51.6882H5.42887L6.76364 15.417ZM12.5727 31.7971C12.2618 31.7971 11.9556 31.8071 11.6546 31.8249C12.1728 29.1643 13.1242 26.6894 14.3967 24.5028L29.3484 31.3458L29.9727 31.6315L30.5969 31.3458L45.5486 24.5028C46.8212 26.6894 47.7725 29.1643 48.2907 31.8249C47.9898 31.8071 47.6835 31.7971 47.3727 31.7971C40.199 31.7971 33.9119 35.7236 29.9749 41.654C28.2113 38.9897 25.9782 36.7414 23.3963 35.0639C20.1124 32.9304 16.3823 31.7979 12.573 31.7971H12.5727ZM29.9727 8.59072C28.9662 8.59072 27.9757 8.81754 27.184 9.26694C26.4309 9.69445 25.5727 10.5142 25.5727 11.7483C25.5727 12.9824 26.4309 13.8022 27.184 14.2297C27.9757 14.6791 28.9662 14.9059 29.9727 14.9059C30.9791 14.9059 31.9696 14.6791 32.7613 14.2297C33.5144 13.8022 34.3727 12.9824 34.3727 11.7483C34.3727 10.5142 33.5144 9.69445 32.7613 9.26694C31.9696 8.81754 30.9791 8.59072 29.9727 8.59072Z" stroke="white" stroke-width="3"/>
</svg>
