<svg width="18" height="28" viewBox="0 0 18 28" fill="none" xmlns="http://www.w3.org/2000/svg">
<path d="M9.87508 10.2998C9.5966 9.81936 9.45536 9.27168 9.46675 8.71647H4.00008V7.38314H9.83341C9.8538 7.33362 9.87892 7.28617 9.90841 7.24147L10.9751 5.38314H4.00008V4.0498H11.7084L13.7334 0.549805H1.91675C1.58523 0.549805 1.26728 0.681501 1.03286 0.915921C0.798444 1.15034 0.666748 1.46828 0.666748 1.7998V27.2165H17.3334V11.8331H12.5251C11.9874 11.8338 11.4591 11.6923 10.9937 11.4231C10.5284 11.1538 10.1424 10.7663 9.87508 10.2998ZM9.00008 22.8665C8.50563 22.8665 8.02228 22.7198 7.61116 22.4451C7.20003 22.1704 6.8796 21.78 6.69038 21.3232C6.50116 20.8664 6.45165 20.3637 6.54812 19.8787C6.64458 19.3938 6.88268 18.9483 7.23231 18.5987C7.58195 18.2491 8.0274 18.011 8.51235 17.9145C8.99731 17.818 9.49997 17.8676 9.95679 18.0568C10.4136 18.246 10.8041 18.5664 11.0788 18.9775C11.3535 19.3887 11.5001 19.872 11.5001 20.3665C11.5001 21.0295 11.2367 21.6654 10.7678 22.1342C10.299 22.6031 9.66312 22.8665 9.00008 22.8665Z" fill="white"/>
</svg>
