<svg width="144" height="39" viewBox="0 0 144 39" fill="none" xmlns="http://www.w3.org/2000/svg">
<g clipPath="url(#clip0_156_1885)">
<path d="M94.21 28.69V7.69H99.77C102.51 7.69 104.49 6.92 105.71 5.42C106.803 4.26257 107.442 2.75022 107.51 1.16V0H78.82C78.1822 0.0136897 77.5521 0.142421 76.96 0.38C75.8831 0.726079 74.9147 1.3464 74.15 2.18C73.0475 3.34972 72.3986 4.87449 72.32 6.48V7.71H85.58V28.71L94.21 28.69ZM59.21 28.69V7.69H64.78C67.52 7.69 69.5 6.92 70.72 5.42C71.8089 4.2601 72.4473 2.74922 72.52 1.16V0H43.81C43.1754 0.0129048 42.5484 0.141687 41.96 0.38C40.8821 0.723967 39.9132 1.34461 39.15 2.18C38.0416 3.34677 37.3887 4.87258 37.31 6.48V7.71H50.58V28.71L59.21 28.69ZM45.14 28.69L30.14 4.34C29.8103 3.78703 29.414 3.27656 28.96 2.82C28.191 1.96422 27.2547 1.27514 26.209 0.795281C25.1633 0.315422 24.0303 0.0549699 22.88 0.0300002C20.8032 -0.0652151 18.7617 0.59162 17.13 1.88C16.05 2.6 15.01 4.32 13.13 7.42C7.37002 16.82 1.12002 26.93 -0.039978 28.67C-0.039978 28.67 3.21002 28.67 9.74002 28.67L22.57 8L30.71 21.2H24.35C22.6886 21.121 21.0633 21.7022 19.8288 22.8168C18.5942 23.9315 17.8505 25.4892 17.76 27.15V28.69H45.14ZM134.54 28.69C135.729 28.6636 136.904 28.4405 138.02 28.03C139.661 27.425 141.079 26.3363 142.088 24.9079C143.097 23.4795 143.648 21.7786 143.67 20.03V19.15C143.638 17.9546 143.387 16.7752 142.93 15.67C142.085 13.9071 140.678 12.4753 138.93 11.6C137.703 10.8667 135.62 10.5 132.68 10.5H116.26C115.63 10.5 115.26 10.03 115.26 9.08C115.26 8.13 115.65 7.75 116.26 7.75H134.96C136.75 7.87977 138.526 7.35762 139.96 6.28C140.792 5.65535 141.468 4.84622 141.935 3.91619C142.402 2.98617 142.647 1.96057 142.65 0.92V0H115.85C113.741 0.016559 111.695 0.718531 110.02 2C108.993 2.78925 108.162 3.80391 107.59 4.96562C107.017 6.12734 106.72 7.40502 106.72 8.7V9.58C106.74 10.5402 106.908 11.4915 107.22 12.4C107.949 14.4032 109.416 16.0523 111.32 17.01C112.51 17.83 114.64 18.23 117.74 18.23H134.12C134.189 18.2177 134.261 18.2177 134.33 18.23C134.83 18.35 135.07 18.77 135.07 19.49C135.07 20.49 134.79 20.95 134.07 20.95H115.37C114.352 20.8859 113.331 21.0288 112.37 21.37C111.359 21.681 110.448 22.2536 109.73 23.03C109.023 23.7588 108.479 24.6297 108.134 25.5848C107.789 26.54 107.651 27.5576 107.73 28.57V28.65L134.54 28.69Z" fill="white"/>
<path d="M142.2 37.75C142.22 37.92 142.302 38.0766 142.43 38.1902C142.559 38.3038 142.724 38.3665 142.895 38.3665C143.066 38.3665 143.231 38.3038 143.36 38.1902C143.488 38.0766 143.57 37.92 143.59 37.75C143.57 37.58 143.488 37.4234 143.36 37.3098C143.231 37.1962 143.066 37.1335 142.895 37.1335C142.724 37.1335 142.559 37.1962 142.43 37.3098C142.302 37.4234 142.22 37.58 142.2 37.75ZM136.73 33.61C136.973 33.5912 137.217 33.6272 137.444 33.7151C137.671 33.8031 137.876 33.9409 138.043 34.1184C138.21 34.2959 138.335 34.5085 138.409 34.7407C138.483 34.9729 138.504 35.2187 138.47 35.46C138.503 35.7017 138.482 35.9479 138.408 36.1805C138.335 36.4131 138.21 36.6262 138.043 36.8044C137.876 36.9826 137.672 37.1214 137.445 37.2106C137.218 37.2998 136.973 37.3372 136.73 37.32H135.85V33.61H136.73ZM134.73 32.61V38.36H136.81C137.202 38.3831 137.594 38.3259 137.963 38.1919C138.332 38.0578 138.67 37.8498 138.955 37.5806C139.241 37.3113 139.468 36.9866 139.624 36.6262C139.779 36.2658 139.86 35.8775 139.86 35.485C139.86 35.0925 139.779 34.7042 139.624 34.3438C139.468 33.9834 139.241 33.6587 138.955 33.3894C138.67 33.1202 138.332 32.9122 137.963 32.7781C137.594 32.6441 137.202 32.5869 136.81 32.61H134.73ZM129.29 38.36H130.46V33.6H131.94V32.6H127.82V33.6H129.29V38.36ZM122.49 38.36H125.96V37.36H123.64V32.59H122.47L122.49 38.36ZM112.96 37.75C112.98 37.92 113.062 38.0766 113.19 38.1902C113.319 38.3038 113.484 38.3665 113.655 38.3665C113.826 38.3665 113.991 38.3038 114.12 38.1902C114.248 38.0766 114.33 37.92 114.35 37.75C114.33 37.58 114.248 37.4234 114.12 37.3098C113.991 37.1962 113.826 37.1335 113.655 37.1335C113.484 37.1335 113.319 37.1962 113.19 37.3098C113.062 37.4234 112.98 37.58 112.96 37.75ZM108.11 38.34H109.27V33.6H110.75V32.6H106.63V33.6H108.11V38.34ZM100.11 32.59H98.96L101.02 38.34H102.31L104.37 32.59H103.14L101.66 36.94L100.11 32.59ZM95.43 34.46C95.4396 34.5845 95.4215 34.7097 95.3773 34.8265C95.333 34.9433 95.2635 35.0489 95.1737 35.1358C95.084 35.2226 94.9762 35.2887 94.858 35.3292C94.7398 35.3696 94.6142 35.3836 94.49 35.37H93.72V33.55H94.49C94.6201 33.5229 94.7548 33.5266 94.8832 33.561C95.0117 33.5953 95.1302 33.6593 95.2294 33.7478C95.3286 33.8363 95.4057 33.9469 95.4544 34.0705C95.5032 34.1942 95.5222 34.3276 95.51 34.46H95.43ZM94.59 36.33C95.086 36.33 95.5616 36.133 95.9123 35.7823C96.263 35.4316 96.46 34.956 96.46 34.46C96.46 33.964 96.263 33.4884 95.9123 33.1377C95.5616 32.787 95.086 32.59 94.59 32.59H92.59V38.34H93.75V36.34L94.59 36.33ZM80.59 37.25C80.8024 37.5944 81.0955 37.8818 81.444 38.0874C81.7925 38.293 82.1858 38.4106 82.59 38.43C83.91 38.43 84.71 37.71 84.71 36.7C84.71 35.69 84.16 35.2 82.87 34.9C82.06 34.72 81.78 34.45 81.78 34.06C81.78 33.67 82.11 33.48 82.56 33.48C82.7706 33.4691 82.977 33.5417 83.1343 33.6822C83.2916 33.8226 83.3871 34.0195 83.4 34.23H84.58C84.5612 33.9788 84.4924 33.7338 84.3776 33.5095C84.2627 33.2853 84.1042 33.0862 83.9114 32.9241C83.7185 32.762 83.4952 32.6401 83.2545 32.5655C83.0139 32.491 82.7607 32.4653 82.51 32.49C82.2734 32.4652 82.0343 32.4892 81.8074 32.5604C81.5804 32.6317 81.3705 32.7487 81.1906 32.9043C81.0106 33.0598 80.8645 33.2506 80.7612 33.4649C80.6579 33.6792 80.5996 33.9123 80.59 34.15C80.59 35.01 81.21 35.6 82.36 35.84C83.29 36.04 83.53 36.35 83.53 36.73C83.53 37.11 83.13 37.43 82.53 37.43C82.2454 37.4245 81.9653 37.3583 81.7083 37.2359C81.4514 37.1134 81.2235 36.9376 81.04 36.72L80.59 37.25ZM74.1 38.34H77.86V37.34H75.37V35.94H77.59V34.94H75.37V33.58H77.78V32.58H74.2L74.1 38.34ZM69.71 32.59V38.34H70.96V32.59H69.71ZM63.96 35.29V36.23H65.62C65.5512 36.5757 65.3613 36.8854 65.0845 37.1036C64.8077 37.3217 64.4622 37.4339 64.11 37.42C63.862 37.4088 63.6187 37.3475 63.395 37.2399C63.1713 37.1322 62.9716 36.9804 62.8081 36.7935C62.6446 36.6067 62.5206 36.3886 62.4436 36.1526C62.3666 35.9165 62.3382 35.6673 62.36 35.42C62.3352 35.1721 62.3616 34.9218 62.4375 34.6845C62.5134 34.4472 62.6372 34.228 62.8013 34.0405C62.9653 33.853 63.1661 33.7012 63.3913 33.5945C63.6164 33.4877 63.861 33.4283 64.11 33.42C64.4286 33.4072 64.7428 33.4976 65.0059 33.6778C65.269 33.8579 65.4668 34.1183 65.57 34.42H66.83C66.6834 33.8204 66.3305 33.2916 65.8333 32.9259C65.336 32.5603 64.726 32.3812 64.11 32.42C63.3949 32.5219 62.7406 32.8784 62.2672 33.424C61.7938 33.9696 61.5332 34.6677 61.5332 35.39C61.5332 36.1123 61.7938 36.8104 62.2672 37.356C62.7406 37.9016 63.3949 38.2581 64.11 38.36C64.5001 38.3806 64.8901 38.3154 65.2522 38.1689C65.6144 38.0223 65.94 37.7981 66.2061 37.512C66.4722 37.2259 66.6722 36.8849 66.7921 36.5131C66.912 36.1412 66.9488 35.7476 66.9 35.36V35.19L63.96 35.29ZM52.45 35.46C52.4321 36.0751 52.5982 36.6815 52.9271 37.2016C53.256 37.7217 53.7327 38.1317 54.2961 38.3791C54.8595 38.6266 55.484 38.7002 56.0895 38.5905C56.695 38.4808 57.2539 38.1929 57.6947 37.7635C58.1355 37.3341 58.4381 36.783 58.5637 36.1806C58.6892 35.5782 58.6321 34.952 58.3996 34.3823C58.167 33.8126 57.7697 33.3252 57.2584 32.9828C56.7472 32.6403 56.1453 32.4583 55.53 32.46C55.1285 32.4479 54.7287 32.5166 54.3543 32.662C53.9799 32.8074 53.6384 33.0264 53.3503 33.3062C53.0621 33.586 52.833 33.9208 52.6767 34.2908C52.5203 34.6607 52.4398 35.0583 52.44 35.46H52.45ZM53.63 35.46C53.6476 35.0861 53.7747 34.7257 53.9955 34.4235C54.2162 34.1213 54.5209 33.8905 54.8716 33.76C55.2224 33.6294 55.6038 33.6048 55.9684 33.6892C56.333 33.7735 56.6648 33.9632 56.9226 34.2345C57.1804 34.5058 57.3528 34.8469 57.4183 35.2154C57.4839 35.5839 57.4398 35.9635 57.2914 36.3071C57.1431 36.6507 56.897 36.9432 56.5839 37.1481C56.2707 37.3531 55.9043 37.4615 55.53 37.46C55.271 37.4617 55.0144 37.4105 54.7759 37.3094C54.5375 37.2083 54.3222 37.0596 54.1433 36.8723C53.9644 36.685 53.8257 36.4631 53.7357 36.2202C53.6457 35.9773 53.6064 35.7186 53.62 35.46H53.63ZM46.69 38.34H50.18V37.34H47.85V32.59H46.68L46.69 38.34ZM37.69 35.46C37.6721 36.0751 37.8382 36.6815 38.1671 37.2016C38.496 37.7217 38.9727 38.1317 39.5361 38.3791C40.0995 38.6266 40.724 38.7002 41.3295 38.5905C41.935 38.4808 42.4939 38.1929 42.9347 37.7635C43.3755 37.3341 43.6781 36.783 43.8037 36.1806C43.9292 35.5782 43.8721 34.952 43.6396 34.3823C43.407 33.8126 43.0097 33.3252 42.4984 32.9828C41.9872 32.6403 41.3853 32.4583 40.77 32.46C40.3644 32.441 39.9592 32.5046 39.5789 32.6469C39.1986 32.7891 38.8512 33.0071 38.5576 33.2876C38.264 33.5681 38.0304 33.9053 37.871 34.2787C37.7115 34.6521 37.6296 35.054 37.63 35.46H37.69ZM38.87 35.46C38.8876 35.0861 39.0147 34.7257 39.2355 34.4235C39.4562 34.1213 39.7609 33.8905 40.1116 33.76C40.4624 33.6294 40.8438 33.6048 41.2084 33.6892C41.573 33.7735 41.9049 33.9632 42.1626 34.2345C42.4204 34.5058 42.5928 34.8469 42.6583 35.2154C42.7239 35.5839 42.6798 35.9635 42.5314 36.3071C42.3831 36.6507 42.137 36.9432 41.8239 37.1481C41.5107 37.3531 41.1443 37.4615 40.77 37.46C40.5064 37.4702 40.2437 37.4252 39.9986 37.3277C39.7535 37.2303 39.5315 37.0827 39.3469 36.8943C39.1622 36.7059 39.0191 36.481 38.9266 36.234C38.8342 35.9869 38.7944 35.7233 38.81 35.46H38.87ZM30.26 38.34H31.36V34.47L33.63 38.34H34.81V32.59H33.71V36.46L31.45 32.59H30.2L30.26 38.34ZM22.52 38.34H23.69V35.95H25.91V38.34H27.07V32.59H25.85V34.95H23.63V32.59H22.46L22.52 38.34ZM18.9 36.34C18.7126 36.6857 18.4306 36.9709 18.0871 37.1621C17.7435 37.3534 17.3526 37.4428 16.96 37.42C16.7069 37.4138 16.4577 37.3565 16.2273 37.2517C15.9969 37.1468 15.79 36.9964 15.6191 36.8097C15.4482 36.6229 15.3168 36.4035 15.2328 36.1647C15.1487 35.9259 15.1138 35.6726 15.13 35.42C15.1052 35.1721 15.1316 34.9218 15.2075 34.6845C15.2834 34.4472 15.4072 34.228 15.5713 34.0405C15.7353 33.853 15.9361 33.7012 16.1613 33.5945C16.3864 33.4877 16.631 33.4283 16.88 33.42C17.2074 33.4078 17.5291 33.5084 17.7912 33.705C18.0534 33.9016 18.24 34.1823 18.32 34.5H19.55C19.4164 33.9176 19.0855 33.3994 18.6135 33.033C18.1415 32.6667 17.5573 32.4749 16.96 32.49C16.2449 32.5919 15.5906 32.9484 15.1172 33.494C14.6438 34.0396 14.3832 34.7377 14.3832 35.46C14.3832 36.1823 14.6438 36.8804 15.1172 37.426C15.5906 37.9716 16.2449 38.3281 16.96 38.43C17.4957 38.4392 18.0224 38.2917 18.4754 38.0057C18.9284 37.7197 19.288 37.3076 19.51 36.82L18.9 36.34ZM7.72 38.34H11.38V37.34H8.83V35.94H11.05V34.94H8.83V33.58H11.24V32.58H7.66L7.72 38.34ZM2.29 38.34H3.45V33.6H4.93V32.6H0.75V33.6H2.23L2.29 38.34Z" fill="white"/>
</g>
<defs>
<clipPath id="clip0_156_1885">
<rect width="143.66" height="38.43" fill="white"/>
</clipPath>
</defs>
</svg>
