<svg width="49" height="52" viewBox="0 0 49 52" fill="none" xmlns="http://www.w3.org/2000/svg">
<path d="M24.4912 0.198008C21.0488 0.0758431 18.3831 2.38968 15.4965 3.84359C11.5704 6.10769 7.52758 8.19635 3.67971 10.5778C1.16288 12.5679 0.00650944 15.7703 0.270814 18.8628C0.285468 24.3459 0.241613 29.8302 0.292955 35.3124C0.61887 38.6319 2.98488 41.449 6.02947 42.8377C10.917 45.5666 15.7759 48.3463 20.6813 51.0434C23.7997 52.4268 27.4913 51.845 30.2499 49.9734C35.1231 47.2196 40.0265 44.5145 44.8805 41.73C47.6728 39.796 48.9983 36.3942 48.7117 33.1348C48.6971 27.6516 48.741 22.1674 48.6896 16.6852C48.3633 13.366 45.9977 10.5482 42.9528 9.16014C38.0652 6.43173 33.2055 3.65389 28.3003 0.956489C27.113 0.419964 25.7941 0.201546 24.4913 0.197903M21.422 14.0054H27.5617V37.9929H21.422V14.0054ZM29.148 19.2264H35.2847V37.9929H29.148V19.2264ZM13.6971 29.0162H19.8357V37.9929H13.6971V29.0162Z" fill="white"/>
</svg>
