<svg width="42" height="42" viewBox="0 0 42 42" fill="none" xmlns="http://www.w3.org/2000/svg">
<path fill-rule="evenodd" clip-rule="evenodd" d="M5.25 0.75C4.05653 0.75 2.91193 1.22411 2.06802 2.06802C1.22411 2.91193 0.75 4.05653 0.75 5.25V36.75C0.75 37.9435 1.22411 39.0881 2.06802 39.932C2.91193 40.7759 4.05653 41.25 5.25 41.25H18.75C19.9435 41.25 21.0881 40.7759 21.932 39.932C22.7759 39.0881 23.25 37.9435 23.25 36.75V23.25H36.75C37.9435 23.25 39.0881 22.7759 39.932 21.932C40.7759 21.0881 41.25 19.9435 41.25 18.75V5.25C41.25 4.05653 40.7759 2.91193 39.932 2.06802C39.0881 1.22411 37.9435 0.75 36.75 0.75H5.25ZM21 21V5.25H5.25V21H21Z" fill="white"/>
</svg>
