<svg width="32" height="32" viewBox="0 0 32 32" fill="none" xmlns="http://www.w3.org/2000/svg">
<path d="M24.7777 21.3253C33.792 12.1679 30.9898 2.281 30.8665 1.8645C30.7291 1.40692 30.3735 1.0485 29.9174 0.912504C29.5051 0.787837 19.7075 -2.02425 10.7187 7.10617L4.14396 13.7843C3.25146 14.6924 2.86896 15.9844 3.12537 17.241C3.37329 18.4622 4.19496 19.4737 5.33112 19.944C6.96596 20.6226 8.31604 21.5038 9.43379 22.63C10.5218 23.735 11.3505 25.1673 12.0815 26.8092C13.5563 30.1185 17.275 29.2841 18.203 28.0048L24.7777 21.3253ZM16.1006 15.9405L16.0595 15.8994C13.7419 13.5449 15.0636 11.4993 16.0595 10.4878C16.9251 9.60942 19.0275 8.06525 21.45 10.4878C23.786 12.8238 22.4459 14.8879 21.45 15.8994C20.5858 16.7778 18.5458 18.3857 16.1006 15.9405Z" fill="white"/>
<path d="M2.12524 11.7982L8.69999 5.12001C9.33749 4.47259 9.98065 3.87759 10.6252 3.33218C8.66741 2.65218 6.57924 3.02051 5.34107 3.60418C2.94974 4.73043 1.18316 7.63318 0.989072 7.96043C0.882822 8.14034 0.817655 8.34009 0.797822 8.54834C0.768072 8.85293 0.615072 10.8533 1.30499 12.8153C1.54157 12.4541 1.81499 12.1141 2.12382 11.7996L2.12524 11.7982Z" fill="white"/>
<path d="M28.2372 26.778C28.8067 25.5299 29.1467 23.4247 28.4809 21.4485C27.9652 22.0718 27.4042 22.6952 26.7965 23.3128L20.2217 29.9924C19.8917 30.3282 19.5304 30.6228 19.1465 30.8764C21.0802 31.5706 23.0437 31.4232 23.3455 31.3949C23.5594 31.3751 23.7677 31.3071 23.9518 31.1937C24.2734 30.9982 27.1308 29.2033 28.2372 26.778Z" fill="white"/>
</svg>
