<svg width="58" height="48" viewBox="0 0 58 48" fill="none" xmlns="http://www.w3.org/2000/svg">
<path d="M52.5 0.375H13.125C11.7326 0.375 10.3973 0.928123 9.41269 1.91269C8.42812 2.89726 7.875 4.23261 7.875 5.625V21.375H18.375V16.125L28.875 24L18.375 31.875V26.625H7.875V42.375C7.875 43.7674 8.42812 45.1027 9.41269 46.0873C10.3973 47.0719 11.7326 47.625 13.125 47.625H52.5C53.8924 47.625 55.2277 47.0719 56.2123 46.0873C57.1969 45.1027 57.75 43.7674 57.75 42.375V5.625C57.75 4.23261 57.1969 2.89726 56.2123 1.91269C55.2277 0.928123 53.8924 0.375 52.5 0.375ZM44.625 37.125H34.125V31.875H44.625V37.125ZM52.5 26.625H34.125V21.375H52.5V26.625ZM52.5 16.125H34.125V10.875H52.5V16.125ZM7.875 26.625H0V21.375H7.875V26.625Z" fill="white"/>
</svg>
