<svg width="34" height="34" viewBox="0 0 34 34" fill="none" xmlns="http://www.w3.org/2000/svg">
<path d="M5.95002 5.09961C5.27372 5.09961 4.62512 5.36827 4.1469 5.84649C3.66868 6.3247 3.40002 6.97331 3.40002 7.64961V14.4496C3.40002 15.1259 3.66868 15.7745 4.1469 16.2527C4.62512 16.7309 5.27372 16.9996 5.95002 16.9996H28.05C28.7263 16.9996 29.3749 16.7309 29.8531 16.2527C30.3314 15.7745 30.6 15.1259 30.6 14.4496V7.64961C30.6 6.97331 30.3314 6.3247 29.8531 5.84649C29.3749 5.36827 28.7263 5.09961 28.05 5.09961H5.95002ZM5.95002 20.3996C5.27372 20.3996 4.62512 20.6683 4.1469 21.1465C3.66868 21.6247 3.40002 22.2733 3.40002 22.9496V26.3496C3.40002 27.0259 3.66868 27.6745 4.1469 28.1527C4.62512 28.6309 5.27372 28.8996 5.95002 28.8996H12.75C13.4263 28.8996 14.0749 28.6309 14.5531 28.1527C15.0314 27.6745 15.3 27.0259 15.3 26.3496V22.9496C15.3 22.2733 15.0314 21.6247 14.5531 21.1465C14.0749 20.6683 13.4263 20.3996 12.75 20.3996H5.95002ZM21.25 20.3996C20.5737 20.3996 19.9251 20.6683 19.4469 21.1465C18.9687 21.6247 18.7 22.2733 18.7 22.9496V26.3496C18.7 27.0259 18.9687 27.6745 19.4469 28.1527C19.9251 28.6309 20.5737 28.8996 21.25 28.8996H28.05C28.7263 28.8996 29.3749 28.6309 29.8531 28.1527C30.3314 27.6745 30.6 27.0259 30.6 26.3496V22.9496C30.6 22.2733 30.3314 21.6247 29.8531 21.1465C29.3749 20.6683 28.7263 20.3996 28.05 20.3996H21.25Z" fill="white"/>
</svg>
