<svg width="37" height="34" viewBox="0 0 37 34" fill="none" xmlns="http://www.w3.org/2000/svg">
<path d="M36.6252 24.5711V33.7853H27.4689V24.5711H29.758V19.1962C29.758 18.7662 29.4223 18.4284 28.995 18.4284H20.6017V24.5711H22.8908V33.7853H13.7345V24.5711H16.0235V18.4284H7.63026C7.20296 18.4284 6.86723 18.7662 6.86723 19.1962V24.5711H9.15631V33.7853H0V24.5711H2.28908V19.1962C2.28908 16.2323 4.68498 13.8213 7.63026 13.8213H16.0235V9.21418H13.7345V0H22.8908V9.21418H20.6017V13.8213H28.995C31.9403 13.8213 34.3362 16.2323 34.3362 19.1962V24.5711H36.6252Z" fill="white"/>
</svg>
