<svg width="39" height="38" viewBox="0 0 39 38" fill="none" xmlns="http://www.w3.org/2000/svg">
<path d="M16.7573 12.2148H14.043V27.1434H16.7573V12.2148Z" fill="white"/>
<path d="M24.9018 12.2148H22.1875V27.1434H24.9018V12.2148Z" fill="white"/>
<path d="M19.4727 9.03243e-07C22.0045 -0.000782084 24.5106 0.5075 26.842 1.49463C29.1734 2.48176 31.2826 3.92758 33.0441 5.74614V9.03243e-07H35.7584V10.8571H24.9012V8.14285H31.5811C29.0385 5.31925 25.5873 3.47518 21.8268 2.93081C18.0663 2.38644 14.2339 3.17613 10.9949 5.1628C7.75597 7.14946 5.31497 10.2076 4.09572 13.8064C2.87648 17.4052 2.95597 21.3173 4.3204 24.8636C5.68482 28.4099 8.24803 31.3664 11.565 33.2198C14.882 35.0733 18.7433 35.7066 22.4786 35.0099C26.2139 34.3133 29.5873 32.3305 32.0131 29.406C34.439 26.4814 35.7641 22.7997 35.7584 19H38.4726C38.4726 22.7578 37.3583 26.4313 35.2706 29.5558C33.1828 32.6804 30.2154 35.1156 26.7436 36.5537C23.2718 37.9918 19.4516 38.368 15.7659 37.6349C12.0803 36.9018 8.69483 35.0922 6.03763 32.435C3.38044 29.7778 1.57086 26.3923 0.837744 22.7067C0.104625 19.0211 0.480889 15.2008 1.91895 11.729C3.35702 8.25722 5.79229 5.28982 8.91683 3.20208C12.0414 1.11433 15.7148 9.03243e-07 19.4727 9.03243e-07Z" fill="white"/>
</svg>
