<svg width="36" height="36" viewBox="0 0 36 36" fill="none" xmlns="http://www.w3.org/2000/svg">
<path d="M18 2.69702C10.3185 2.69702 1.5 4.57202 1.5 19.197C1.5 25.002 2.8575 29.1435 5.6505 31.857C5.835 32.037 6.0615 32.1645 6.3105 32.232C6.474 32.274 10.4235 33.303 18 33.303C25.5765 33.303 29.5455 32.2755 29.712 32.232C29.9625 32.166 30.1905 32.0355 30.375 31.8555C33.1515 29.1465 34.5 25.008 34.5 19.197C34.5 4.57202 25.6815 2.69702 18 2.69702ZM10.128 25.7775C9.972 25.8285 9.8145 25.8525 9.66 25.8525C9.03 25.8525 8.442 25.452 8.235 24.8205C7.749 23.3415 7.5015 21.4485 7.5015 19.197C7.5015 18.3675 8.172 17.697 9.0015 17.697C9.831 17.697 10.5015 18.3675 10.5015 19.197C10.5015 21.1035 10.704 22.7235 11.0865 23.883C11.346 24.669 10.9155 25.518 10.128 25.7775ZM18 22.5165C16.17 22.5165 14.6805 21.027 14.6805 19.197C14.6805 18.864 14.73 18.5415 14.823 18.237L10.4505 14.388C9.8295 13.8405 9.7695 12.8925 10.3155 12.27C10.866 11.6475 11.811 11.589 12.4335 12.135L16.899 16.0665C17.244 15.945 17.6145 15.8775 18 15.8775C19.83 15.8775 21.3195 17.367 21.3195 19.197C21.3195 21.027 19.83 22.5165 18 22.5165ZM27.777 24.8145C27.57 25.449 26.9835 25.851 26.3505 25.851C26.196 25.851 26.0415 25.827 25.887 25.7775C25.0995 25.521 24.6675 24.6765 24.9225 23.8875C25.3005 22.725 25.5 21.1035 25.5 19.1955C25.5 12.432 23.982 11.6955 18 11.6955C17.1705 11.6955 16.5 11.025 16.5 10.1955C16.5 9.36602 17.1705 8.69552 18 8.69552C25.1145 8.69552 28.5 10.2675 28.5 19.1955C28.5 21.444 28.257 23.337 27.777 24.8145Z" fill="white"/>
</svg>
