<svg width="49" height="50" viewBox="0 0 49 50" fill="none" xmlns="http://www.w3.org/2000/svg">
<path d="M8.92708 0.625C6.59263 0.625 4.35378 1.55236 2.70307 3.20307C1.05236 4.85378 0.125 7.09263 0.125 9.42708V40.5729C0.125 42.9074 1.05236 45.1462 2.70307 46.7969C4.35378 48.4476 6.59263 49.375 8.92708 49.375H40.0729C42.4074 49.375 44.6462 48.4476 46.2969 46.7969C47.9476 45.1462 48.875 42.9074 48.875 40.5729V9.42708C48.875 7.09263 47.9476 4.85378 46.2969 3.20307C44.6462 1.55236 42.4074 0.625 40.0729 0.625H8.92708ZM16.375 25C16.375 22.8451 17.231 20.7785 18.7548 19.2548C20.2785 17.731 22.3451 16.875 24.5 16.875C26.6549 16.875 28.7215 17.731 30.2452 19.2548C31.769 20.7785 32.625 22.8451 32.625 25C32.625 27.1549 31.769 29.2215 30.2452 30.7452C28.7215 32.269 26.6549 33.125 24.5 33.125C22.3451 33.125 20.2785 32.269 18.7548 30.7452C17.231 29.2215 16.375 27.1549 16.375 25ZM12.4804 22.9688C12.9019 20.4727 14.09 18.1699 15.88 16.38C17.6699 14.59 19.9727 13.4019 22.4688 12.9804V10.7812C22.4688 10.2425 22.6828 9.72587 23.0637 9.34494C23.4446 8.96401 23.9613 8.75 24.5 8.75C25.0387 8.75 25.5554 8.96401 25.9363 9.34494C26.3172 9.72587 26.5312 10.2425 26.5312 10.7812V12.9804C29.0273 13.4019 31.3301 14.59 33.12 16.38C34.91 18.1699 36.0981 20.4727 36.5196 22.9688H38.7188C39.2575 22.9688 39.7741 23.1828 40.1551 23.5637C40.536 23.9446 40.75 24.4613 40.75 25C40.75 25.5387 40.536 26.0554 40.1551 26.4363C39.7741 26.8172 39.2575 27.0312 38.7188 27.0312H36.5196C36.0981 29.5273 34.91 31.8301 33.12 33.62C31.3301 35.41 29.0273 36.5981 26.5312 37.0196V39.2188C26.5312 39.7575 26.3172 40.2741 25.9363 40.6551C25.5554 41.036 25.0387 41.25 24.5 41.25C23.9613 41.25 23.4446 41.036 23.0637 40.6551C22.6828 40.2741 22.4688 39.7575 22.4688 39.2188V37.0196C19.9727 36.5981 17.6699 35.41 15.88 33.62C14.09 31.8301 12.9019 29.5273 12.4804 27.0312H10.2812C9.74253 27.0312 9.22587 26.8172 8.84494 26.4363C8.46401 26.0554 8.25 25.5387 8.25 25C8.25 24.4613 8.46401 23.9446 8.84494 23.5637C9.22587 23.1828 9.74253 22.9688 10.2812 22.9688H12.4804ZM28.5625 25C28.5625 23.9226 28.1345 22.8892 27.3726 22.1274C26.6108 21.3655 25.5774 20.9375 24.5 20.9375C23.4226 20.9375 22.3892 21.3655 21.6274 22.1274C20.8655 22.8892 20.4375 23.9226 20.4375 25C20.4375 26.0774 20.8655 27.1108 21.6274 27.8726C22.3892 28.6345 23.4226 29.0625 24.5 29.0625C25.5774 29.0625 26.6108 28.6345 27.3726 27.8726C28.1345 27.1108 28.5625 26.0774 28.5625 25Z" fill="white"/>
</svg>
