<svg width="39" height="39" viewBox="0 0 39 39" fill="none" xmlns="http://www.w3.org/2000/svg">
<path d="M34.3021 28.1453C33.1131 26.9498 31.7239 25.974 30.1981 25.2627C32.3498 23.5112 33.7226 20.8385 33.7226 17.8413C33.7226 12.5533 29.3336 8.21502 24.0706 8.29615C18.8884 8.37729 14.7132 12.6201 14.7132 17.8413C14.7132 20.8385 16.0907 23.5112 18.2377 25.2627C16.7115 25.9735 15.3222 26.9493 14.1337 28.1453C11.5402 30.7559 10.0677 34.2018 9.97272 37.8766C9.97145 37.9276 9.98034 37.9783 9.99887 38.0257C10.0174 38.0731 10.0452 38.1163 10.0806 38.1528C10.116 38.1893 10.1583 38.2183 10.2051 38.238C10.2518 38.2578 10.302 38.268 10.3527 38.268H13.0127C13.2169 38.268 13.3879 38.1057 13.3927 37.9005C13.4829 35.1324 14.5992 32.5409 16.5609 30.5746C17.5648 29.5606 18.7588 28.7567 20.074 28.2095C21.3891 27.6622 22.7992 27.3825 24.2226 27.3865C27.1154 27.3865 29.8371 28.5176 31.8843 30.5746C33.8413 32.5409 34.9576 35.1324 35.0526 37.9005C35.0573 38.1057 35.2283 38.268 35.4326 38.268H38.0925C38.1432 38.268 38.1935 38.2578 38.2402 38.238C38.2869 38.2183 38.3292 38.1893 38.3647 38.1528C38.4001 38.1163 38.4279 38.0731 38.4464 38.0257C38.4649 37.9783 38.4738 37.9276 38.4725 37.8766C38.3775 34.2018 36.905 30.7559 34.3021 28.1453ZM24.2226 23.9502C22.5981 23.9502 21.0686 23.3155 19.9239 22.1605C19.3494 21.5878 18.8956 20.9048 18.5896 20.152C18.2835 19.3993 18.1315 18.5923 18.1427 17.7793C18.1569 16.2139 18.7792 14.701 19.8669 13.5794C21.0069 12.4053 22.5316 11.7515 24.1609 11.7324C25.7711 11.7181 27.3339 12.3481 28.4833 13.4792C29.6613 14.6389 30.3073 16.19 30.3073 17.8413C30.3073 19.4736 29.6756 21.0056 28.5261 22.1605C27.9621 22.7299 27.2914 23.1812 26.5527 23.4884C25.8141 23.7956 25.0221 23.9526 24.2226 23.9502ZM12.324 19.1013C12.2812 18.6861 12.2575 18.2661 12.2575 17.8413C12.2575 17.0825 12.3287 16.3427 12.4617 15.6221C12.4949 15.4503 12.4047 15.2737 12.248 15.2021C11.602 14.911 11.0082 14.5101 10.4952 14.0042C9.89073 13.4153 9.41506 12.7062 9.09855 11.9223C8.78205 11.1383 8.63166 10.2967 8.65697 9.45112C8.69972 7.91912 9.31247 6.46348 10.3812 5.36578C11.5545 4.15832 13.1314 3.4997 14.8082 3.51879C16.3234 3.53311 17.7864 4.12014 18.8932 5.16056C19.2684 5.51373 19.5914 5.90509 19.8622 6.32507C19.9572 6.47302 20.1424 6.53507 20.3039 6.4778C21.1399 6.18667 22.0234 5.98145 22.9306 5.88599C23.1966 5.85736 23.3486 5.571 23.2299 5.33237C21.6861 2.2636 18.5322 0.144573 14.8842 0.0873015C9.61647 0.00616749 5.2275 4.34445 5.2275 9.6277C5.2275 12.6249 6.60024 15.2975 8.75197 17.0491C7.24148 17.7506 5.84974 18.7195 4.64325 19.9317C2.04027 22.5423 0.567774 25.9881 0.472775 29.6678C0.471507 29.7187 0.480399 29.7694 0.498928 29.8168C0.517456 29.8643 0.545245 29.9075 0.580658 29.944C0.616071 29.9804 0.658392 30.0094 0.705126 30.0292C0.751859 30.049 0.802061 30.0592 0.852773 30.0591H3.51751C3.72176 30.0591 3.89275 29.8969 3.8975 29.6917C3.98775 26.9236 5.104 24.332 7.06573 22.3657C8.46222 20.9626 10.1722 19.989 12.039 19.5165C12.2242 19.4688 12.3477 19.2922 12.324 19.1013Z" fill="white"/>
</svg>
