<svg width="34" height="35" viewBox="0 0 34 35" fill="none" xmlns="http://www.w3.org/2000/svg">
<path d="M13.125 17.5C8.29938 17.5 4.375 13.5756 4.375 8.75C4.375 3.92438 8.29938 0 13.125 0C17.9506 0 21.875 3.92438 21.875 8.75C21.875 13.5756 17.9506 17.5 13.125 17.5ZM33.0983 27.9038L31.6779 27.0842C31.92 26.3594 32.0833 25.5981 32.0833 24.7917C32.0833 23.9852 31.9215 23.224 31.6779 22.4992L33.0983 21.6796C33.7954 21.2771 34.0346 20.3846 33.6321 19.6875C33.2281 18.989 32.3385 18.7483 31.64 19.1537L30.221 19.9733C29.1929 18.8154 27.8235 17.9681 26.25 17.6488V16.0431C26.25 15.2381 25.5967 14.5848 24.7917 14.5848C23.9867 14.5848 23.3333 15.2381 23.3333 16.0431V17.6488C21.7598 17.9696 20.3904 18.8169 19.3623 19.9733L17.9433 19.1537C17.2433 18.7498 16.3538 18.989 15.9513 19.6875C15.5487 20.386 15.7879 21.2771 16.485 21.6796L17.9054 22.4992C17.6633 23.224 17.5 23.9852 17.5 24.7917C17.5 25.5981 17.6619 26.3594 17.9054 27.0842L16.485 27.9038C15.7879 28.3063 15.5487 29.1988 15.9513 29.8958C16.2225 30.364 16.711 30.625 17.2156 30.625C17.4621 30.625 17.7129 30.5623 17.9433 30.4296L19.3623 29.61C20.3904 30.7679 21.7598 31.6152 23.3333 31.9346V33.5402C23.3333 34.3452 23.9867 34.9985 24.7917 34.9985C25.5967 34.9985 26.25 34.3452 26.25 33.5402V31.9346C27.8235 31.6138 29.1929 30.7665 30.221 29.61L31.64 30.4296C31.8704 30.5623 32.1213 30.625 32.3677 30.625C32.8723 30.625 33.3623 30.364 33.6321 29.8958C34.0346 29.1973 33.7954 28.3063 33.0983 27.9038ZM24.7917 26.9792C23.5856 26.9792 22.6042 25.9977 22.6042 24.7917C22.6042 23.5856 23.5856 22.6042 24.7917 22.6042C25.9977 22.6042 26.9792 23.5856 26.9792 24.7917C26.9792 25.9977 25.9977 26.9792 24.7917 26.9792ZM11.6667 24.7917C11.6667 23.2692 11.9394 21.8123 12.4163 20.4531C5.50958 20.8235 0 26.5446 0 33.5417C0 34.3467 0.653333 35 1.45833 35H16.5506C13.5742 32.5938 11.6667 28.9173 11.6667 24.7917Z" fill="white"/>
</svg>
