<svg width="24" height="24" viewBox="0 0 24 24" fill="none" xmlns="http://www.w3.org/2000/svg">
<path d="M17.712 24C17.368 24 17.08 23.884 16.848 23.652C16.616 23.42 16.5 23.132 16.5 22.788V9.92401C16.5 9.25701 16.2625 8.68651 15.7875 8.21251C15.3125 7.73851 14.7425 7.50101 14.0775 7.50001H9.462C9.119 7.50001 8.831 7.38401 8.598 7.15201C8.365 6.92001 8.249 6.63201 8.25 6.28801V1.21201C8.25 0.869007 8.366 0.581006 8.598 0.348006C8.83 0.115006 9.118 -0.00099359 9.462 6.41027e-06H22.788C23.132 6.41027e-06 23.42 0.116006 23.652 0.348006C23.884 0.580006 24 0.868007 24 1.21201V22.788C24 23.132 23.884 23.42 23.652 23.652C23.42 23.884 23.132 24 22.788 24H17.712ZM9.462 24C9.118 24 8.83 23.884 8.598 23.652C8.366 23.42 8.25 23.132 8.25 22.788V10.212C8.25 9.86901 8.366 9.58101 8.598 9.34801C8.83 9.11501 9.118 8.99901 9.462 9.00001H13.788C14.132 9.00001 14.42 9.11601 14.652 9.34801C14.884 9.58001 15 9.86801 15 10.212V22.788C15 23.132 14.884 23.42 14.652 23.652C14.42 23.884 14.132 24 13.788 24H9.462ZM1.212 24C0.868 24 0.58 23.884 0.348 23.652C0.116 23.42 0 23.132 0 22.788V10.212C0 9.86901 0.116 9.58101 0.348 9.34801C0.58 9.11501 0.868 8.99901 1.212 9.00001H5.538C5.881 9.00001 6.169 9.11601 6.402 9.34801C6.635 9.58001 6.751 9.86801 6.75 10.212V22.788C6.75 23.132 6.634 23.42 6.402 23.652C6.17 23.884 5.882 24 5.538 24H1.212Z" fill="white"/>
</svg>
